<?xml version="1.0" encoding="UTF-8" standalone="no"?>
<!DOCTYPE svg PUBLIC "-//W3C//DTD SVG 1.1//EN" "http://www.w3.org/Graphics/SVG/1.1/DTD/svg11.dtd">
<!-- Generated by graphviz version 2.40.1 (20161225.0304)
 -->
<!-- Title: Rocs Pages: 1 -->
<svg width="627pt" height="121pt" viewBox="0.00 0.00 626.88 121.00" xmlns="http://www.w3.org/2000/svg" xmlns:xlink="http://www.w3.org/1999/xlink">
<g id="graph0" class="graph" transform="scale(1 1) rotate(0) translate(4 117)">
<title>Rocs</title>
<polygon fill="#ffffff" stroke="transparent" points="-4,4 -4,-117 622.8753,-117 622.8753,4 -4,4"/>
<!-- CommonMark -->
<g id="node1" class="node">
<title>CommonMark</title>
<ellipse fill="none" stroke="#000000" cx="67.9005" cy="-41" rx="67.8011" ry="18"/>
<text text-anchor="middle" x="67.9005" y="-36.8" font-family="Times,serif" font-size="14.00" fill="#000000">CommonMark</text>
</g>
<!-- HTML with JS -->
<g id="node2" class="node">
<title>HTML with JS</title>
<ellipse fill="none" stroke="#000000" cx="253.6518" cy="-95" rx="69.5205" ry="18"/>
<text text-anchor="middle" x="253.6518" y="-90.8" font-family="Times,serif" font-size="14.00" fill="#000000">HTML with JS</text>
</g>
<!-- CommonMark&#45;&gt;HTML with JS -->
<g id="edge1" class="edge">
<title>CommonMark-&gt;HTML with JS</title>
<path fill="none" stroke="#000000" d="M113.8165,-54.3483C139.1727,-61.7196 170.8659,-70.9332 197.6658,-78.7242"/>
<polygon fill="#000000" stroke="#000000" points="196.7178,-82.0935 207.2973,-81.5242 198.6719,-75.3717 196.7178,-82.0935"/>
</g>
<!-- HTML without JS -->
<g id="node3" class="node">
<title>HTML without JS</title>
<ellipse fill="none" stroke="#000000" cx="253.6518" cy="-41" rx="81.702" ry="18"/>
<text text-anchor="middle" x="253.6518" y="-36.8" font-family="Times,serif" font-size="14.00" fill="#000000">HTML without JS</text>
</g>
<!-- CommonMark&#45;&gt;HTML without JS -->
<g id="edge2" class="edge">
<title>CommonMark-&gt;HTML without JS</title>
<path fill="none" stroke="#000000" d="M136.0127,-41C144.3478,-41 152.9699,-41 161.5828,-41"/>
<polygon fill="#000000" stroke="#000000" points="161.6717,-44.5001 171.6717,-41 161.6716,-37.5001 161.6717,-44.5001"/>
</g>
<!-- Diff -->
<g id="node4" class="node">
<title>Diff</title>
<ellipse fill="none" stroke="#000000" cx="398.6238" cy="-41" rx="27.2428" ry="18"/>
<text text-anchor="middle" x="398.6238" y="-36.8" font-family="Times,serif" font-size="14.00" fill="#000000">Diff</text>
</g>
<!-- HTML with JS&#45;&gt;Diff -->
<g id="edge3" class="edge">
<title>HTML with JS-&gt;Diff</title>
<path fill="none" stroke="#000000" d="M298.0729,-81.1136C310.2786,-77.0904 323.4655,-72.5503 335.5027,-68 345.704,-64.1437 356.6767,-59.5948 366.5662,-55.3411"/>
<polygon fill="#000000" stroke="#000000" points="368.2545,-58.4234 376.0259,-51.2223 365.46,-52.0054 368.2545,-58.4234"/>
</g>
<!-- HTML without JS&#45;&gt;Diff -->
<g id="edge4" class="edge">
<title>HTML without JS-&gt;Diff</title>
<path fill="none" stroke="#000000" d="M335.8801,-41C344.6674,-41 353.2601,-41 361.129,-41"/>
<polygon fill="#000000" stroke="#000000" points="361.361,-44.5001 371.361,-41 361.361,-37.5001 361.361,-44.5001"/>
</g>
<!-- Inbox -->
<g id="node5" class="node">
<title>Inbox</title>
<ellipse fill="none" stroke="#000000" cx="495.3101" cy="-41" rx="33.6305" ry="18"/>
<text text-anchor="middle" x="495.3101" y="-36.8" font-family="Times,serif" font-size="14.00" fill="#000000">Inbox</text>
</g>
<!-- Diff&#45;&gt;Inbox -->
<g id="edge5" class="edge">
<title>Diff-&gt;Inbox</title>
<path fill="none" stroke="#000000" d="M425.8136,-41C433.7624,-41 442.6616,-41 451.3687,-41"/>
<polygon fill="#000000" stroke="#000000" points="451.4335,-44.5001 461.4335,-41 451.4334,-37.5001 451.4335,-44.5001"/>
</g>
<!-- Git -->
<g id="node6" class="node">
<title>Git</title>
<ellipse fill="none" stroke="#000000" cx="591.8753" cy="-18" rx="27" ry="18"/>
<text text-anchor="middle" x="591.8753" y="-13.8" font-family="Times,serif" font-size="14.00" fill="#000000">Git</text>
</g>
<!-- Inbox&#45;&gt;Git -->
<g id="edge6" class="edge">
<title>Inbox-&gt;Git</title>
<path fill="none" stroke="#000000" d="M526.1294,-33.6594C535.7155,-31.3762 546.3629,-28.8402 556.2487,-26.4856"/>
<polygon fill="#000000" stroke="#000000" points="557.2818,-29.8375 566.1987,-24.1157 555.6598,-23.028 557.2818,-29.8375"/>
</g>
<!-- Git&#45;&gt;CommonMark -->
<g id="edge7" class="edge">
<title>Git-&gt;CommonMark</title>
<path fill="none" stroke="#000000" d="M565.1877,-15.2371C498.5077,-8.8772 319.3835,4.8625 171.8009,-14 155.1135,-16.1328 137.2765,-20.1184 121.1752,-24.385"/>
<polygon fill="#000000" stroke="#000000" points="120.1193,-21.0452 111.4,-27.0638 121.9694,-27.7963 120.1193,-21.0452"/>
</g>
</g>
</svg>